<?xml version="1.0" encoding="utf-8"?>
<!-- Generator: Adobe Illustrator 16.0.0, SVG Export Plug-In . SVG Version: 6.00 Build 0)  -->
<!DOCTYPE svg PUBLIC "-//W3C//DTD SVG 1.1//EN" "http://www.w3.org/Graphics/SVG/1.1/DTD/svg11.dtd">
<svg version="1.1" id="Vrstva_1" xmlns="http://www.w3.org/2000/svg" xmlns:xlink="http://www.w3.org/1999/xlink" x="0px" y="0px"
	 width="130.256px" height="168.107px" viewBox="0 0 130.256 168.107" enable-background="new 0 0 130.256 168.107"
	 xml:space="preserve">
<path fill="none" stroke="#000000" stroke-miterlimit="10" d="M24.88,121.13c6.255,7.882,30.19,9.466,40.249,9.466
	c10.061,0,33.994-1.584,40.25-9.466c5.152-6.494,3.766-19.238-1.149-32.532H26.028C21.113,101.892,19.727,114.637,24.88,121.13z"/>
<path fill="none" stroke="#000000" stroke-miterlimit="10" d="M65.128,43.892c-13.765,0-31.104,23.081-39.1,44.706h78.201
	C96.234,66.972,78.895,43.892,65.128,43.892z"/>
<path fill="#9D9D9C" stroke="#000000" stroke-miterlimit="10" d="M83.447,6.323C77.639,2.631,71.492,0.5,65.128,0.5
	c-6.364,0-12.512,2.132-18.321,5.824C20.038,23.337,0.5,73.652,0.5,102.981c0,35.692,28.934,64.626,64.628,64.626
	c35.693,0,64.628-28.934,64.628-64.626C129.756,73.651,110.217,23.334,83.447,6.323z M105.378,121.13
	c-6.256,7.882-30.189,9.466-40.25,9.466c-10.059,0-33.993-1.584-40.249-9.466c-5.153-6.493-3.767-19.238,1.148-32.532
	c7.996-21.625,25.335-44.706,39.1-44.706c13.767,0,31.105,23.08,39.101,44.706C109.144,101.892,110.531,114.636,105.378,121.13z"/>
</svg>
